<?xml version="1.0" encoding="UTF-8" standalone="no"?>
<!-- Created with Inkscape (http://www.inkscape.org/) -->

<svg
   width="512"
   height="512"
   viewBox="0 0 512 512"
   version="1.1"
   id="svg5"
   inkscape:version="1.1.1 (3bf5ae0d25, 2021-09-20)"
   sodipodi:docname="OtherDustFavIcon.svg"
   xmlns:inkscape="http://www.inkscape.org/namespaces/inkscape"
   xmlns:sodipodi="http://sodipodi.sourceforge.net/DTD/sodipodi-0.dtd"
   xmlns="http://www.w3.org/2000/svg"
   xmlns:svg="http://www.w3.org/2000/svg">
  <sodipodi:namedview
     id="namedview7"
     pagecolor="#ffffff"
     bordercolor="#666666"
     borderopacity="1.0"
     inkscape:pageshadow="2"
     inkscape:pageopacity="0.0"
     inkscape:pagecheckerboard="0"
     inkscape:document-units="px"
     showgrid="false"
     inkscape:snap-object-midpoints="true"
     inkscape:snap-bbox="true"
     inkscape:snap-bbox-edge-midpoints="true"
     inkscape:snap-bbox-midpoints="true"
     inkscape:bbox-nodes="true"
     inkscape:bbox-paths="true"
     inkscape:object-paths="true"
     inkscape:snap-intersection-paths="true"
     inkscape:snap-smooth-nodes="true"
     inkscape:snap-midpoints="true"
     inkscape:snap-center="true"
     inkscape:snap-text-baseline="true"
     inkscape:snap-page="true"
     inkscape:zoom="1.4363106"
     inkscape:cx="246.11667"
     inkscape:cy="268.39598"
     inkscape:window-width="1920"
     inkscape:window-height="1017"
     inkscape:window-x="1358"
     inkscape:window-y="-8"
     inkscape:window-maximized="1"
     inkscape:current-layer="layer1" />
  <defs
     id="defs2" />
  <g
     inkscape:label="Camada 1"
     inkscape:groupmode="layer"
     id="layer1">
    <g
       id="g24036"
       transform="matrix(1.016845,0,0,1.016845,-7.7038723,-31.3366)">
      <g
         aria-label="O"
         id="text1970"
         style="font-size:200px;line-height:1.25;font-family:'Proxima Nova';-inkscape-font-specification:'Proxima Nova'"
         transform="matrix(2.5101964,0,0,2.5013656,-215.17411,-181.37656)">
        <path
           d="m 161.7851,109.74416 c 21.09375,0 38.63932,6.67318 52.63671,20.01953 14.0625,13.34635 21.09375,30.07812 21.09375,50.19531 0,20.11719 -7.09635,36.78385 -21.28906,50 -14.1276,13.15104 -31.96614,19.72656 -53.51562,19.72656 -20.57292,0 -37.72787,-6.57552 -51.46485,-19.72656 -13.671873,-13.21615 -20.50781,-29.75261 -20.50781,-49.60938 0,-20.3776 6.901043,-37.23958 20.70313,-50.58593 13.80208,-13.34635 31.25,-20.01953 52.34375,-20.01953 z m 0.78125,18.55468 c -15.625,0 -28.48307,4.88281 -38.57422,14.64844 -10.02605,9.76563 -15.12865,22.23334 -15.03907,37.40234 0.29297,49.60938 15.04676,4.33316 23.20283,9.87881 8.68526,5.90548 10.83446,-31.36288 26.00373,-31.36288 15.23438,0 24.95796,34.64039 35.11422,24.67946 8.52322,-10.38697 20.95266,46.41399 22.12454,-3.97664 0.33603,-14.44919 -5.11068,-26.59505 -15.33203,-36.42578 -10.15625,-9.89583 -22.65625,-14.84375 -37.5,-14.84375 z"
           style="font-family:'Gill Sans MT';-inkscape-font-specification:'Gill Sans MT';fill:#292929;fill-opacity:1"
           id="path21938"
           sodipodi:nodetypes="scscscsssscssscscs" />
      </g>
      <g
         aria-label="D"
         id="text1970-8"
         style="font-size:200px;line-height:1.25;font-family:'Proxima Nova';-inkscape-font-specification:'Proxima Nova';fill:#ffae03;fill-opacity:1;stroke:#ffae03;stroke-width:4.27011;stroke-miterlimit:4;stroke-dasharray:none;stroke-opacity:1"
         transform="matrix(2.5108397,0,0,2.4808924,-186.6109,-180.00546)">
        <path
           d="M 150.35162,249.08231 V 112.22856 h 45.9961 q 27.83203,0 44.04297,8.43686 16.21093,8.33876 25.78125,24.62387 9.57031,16.28511 9.57031,35.5133 0,13.73443 -5.27344,26.29162 -5.27344,12.55719 -15.03906,22.07318 -9.96094,9.81031 -23.14453,14.81357 -7.71485,3.04119 -14.16016,4.12033 -6.44531,0.98102 -24.60937,0.98102 z M 194.29694,129.6909 h -24.41407 v 101.92907 h 25 q 14.64844,0 22.75391,-1.96206 8.10547,-2.06017 13.47656,-5.10136 5.46875,-3.13929 9.96094,-7.65204 14.45312,-14.71546 14.45312,-37.18105 0,-22.07318 -14.84375,-36.00382 -5.46875,-5.19946 -12.59765,-8.53497 -7.03125,-3.3355 -13.37891,-4.41464 -6.34765,-1.07913 -20.41015,-1.07913 z"
           style="font-family:'Gill Sans MT';-inkscape-font-specification:'Gill Sans MT';fill:#ffae03;fill-opacity:1;stroke:#ffae03;stroke-width:4.27011;stroke-miterlimit:4;stroke-dasharray:none;stroke-opacity:1"
           id="path21917" />
      </g>
    </g>
  </g>
</svg>
